<?xml version="1.0" encoding="UTF-8" standalone="no"?>
<!-- Created with Inkscape (http://www.inkscape.org/) -->

<svg
   width="96.83934mm"
   height="45.472672mm"
   viewBox="0 0 96.839341 45.472672"
   version="1.1"
   id="svg22686"
   inkscape:version="1.2.1 (9c6d41e, 2022-07-14)"
   sodipodi:docname="DCFoilLogo.svg"
   xmlns:inkscape="http://www.inkscape.org/namespaces/inkscape"
   xmlns:sodipodi="http://sodipodi.sourceforge.net/DTD/sodipodi-0.dtd"
   xmlns:xlink="http://www.w3.org/1999/xlink"
   xmlns="http://www.w3.org/2000/svg"
   xmlns:svg="http://www.w3.org/2000/svg">
  <sodipodi:namedview
     id="namedview22688"
     pagecolor="#ffffff"
     bordercolor="#000000"
     borderopacity="0.25"
     inkscape:showpageshadow="2"
     inkscape:pageopacity="0.0"
     inkscape:pagecheckerboard="0"
     inkscape:deskcolor="#d1d1d1"
     inkscape:document-units="mm"
     showgrid="false"
     inkscape:zoom="1.4196188"
     inkscape:cx="-17.962568"
     inkscape:cy="55.296534"
     inkscape:window-width="1920"
     inkscape:window-height="1027"
     inkscape:window-x="0"
     inkscape:window-y="25"
     inkscape:window-maximized="0"
     inkscape:current-layer="layer1" />
  <defs
     id="defs22683">
    <inkscape:path-effect
       effect="bspline"
       id="path-effect3663-6"
       is_visible="true"
       lpeversion="1"
       weight="33.333333"
       steps="2"
       helper_size="0"
       apply_no_weight="true"
       apply_with_weight="true"
       only_selected="false" />
    <inkscape:path-effect
       effect="bspline"
       id="path-effect4069-7"
       is_visible="true"
       lpeversion="1"
       weight="33.333333"
       steps="2"
       helper_size="0"
       apply_no_weight="true"
       apply_with_weight="true"
       only_selected="false" />
    <clipPath
       clipPathUnits="userSpaceOnUse"
       id="clipPath5035-5">
      <path
         style="opacity:1;fill:none;fill-opacity:0.92549;stroke:#32e89a;stroke-width:0.0416687;stroke-miterlimit:4;stroke-dasharray:none;stroke-dashoffset:0;stroke-opacity:1"
         d="m 130.47178,95.380331 -0.0247,-0.259474 0.47756,-0.04328 c 1.12471,-0.101918 1.87047,-0.429358 3.72279,-1.634572 1.53665,-0.999823 2.06042,-1.284642 2.85092,-1.550302 1.23523,-0.415113 2.2997,-0.333886 3.50792,0.267684 0.82118,0.408869 1.49044,0.910971 2.86563,2.149925 1.21189,1.091829 1.20286,0.992314 0.10225,1.126135 -0.64591,0.07854 -1.24209,0.01961 -1.70681,-0.168727 -0.14235,-0.05768 -0.66473,-0.31006 -1.16085,-0.560835 -0.49611,-0.250775 -1.04721,-0.504714 -1.22464,-0.564311 -1.18357,-0.397526 -2.49345,-0.232 -5.42368,0.685379 -1.74632,0.546725 -2.94288,0.811848 -3.66404,0.811848 -0.29688,0 -0.29762,-5.29e-4 -0.32231,-0.259475 z"
         id="path5037-3" />
    </clipPath>
    <clipPath
       clipPathUnits="userSpaceOnUse"
       id="clipPath5031-5">
      <path
         style="opacity:1;fill:none;fill-opacity:0.92549;stroke:#32e89a;stroke-width:0.0416687;stroke-miterlimit:4;stroke-dasharray:none;stroke-dashoffset:0;stroke-opacity:1"
         d="m 130.47178,95.380331 -0.0247,-0.259474 0.47756,-0.04328 c 1.12471,-0.101918 1.87047,-0.429358 3.72279,-1.634572 1.53665,-0.999823 2.06042,-1.284642 2.85092,-1.550302 1.23523,-0.415113 2.2997,-0.333886 3.50792,0.267684 0.82118,0.408869 1.49044,0.910971 2.86563,2.149925 1.21189,1.091829 1.20286,0.992314 0.10225,1.126135 -0.64591,0.07854 -1.24209,0.01961 -1.70681,-0.168727 -0.14235,-0.05768 -0.66473,-0.31006 -1.16085,-0.560835 -0.49611,-0.250775 -1.04721,-0.504714 -1.22464,-0.564311 -1.18357,-0.397526 -2.49345,-0.232 -5.42368,0.685379 -1.74632,0.546725 -2.94288,0.811848 -3.66404,0.811848 -0.29688,0 -0.29762,-5.29e-4 -0.32231,-0.259475 z"
         id="path5033-6" />
    </clipPath>
    <linearGradient
       inkscape:collect="always"
       id="linearGradient16825">
      <stop
         style="stop-color:#63ffd7;stop-opacity:1;"
         offset="0"
         id="stop16823" />
      <stop
         style="stop-color:#0000ae;stop-opacity:1"
         offset="0.65187436"
         id="stop16821" />
    </linearGradient>
    <clipPath
       clipPathUnits="userSpaceOnUse"
       id="clipPath21025">
      <path
         id="path21027"
         style="font-weight:600;font-size:33.8067px;font-family:'CMU Bright';-inkscape-font-specification:'CMU Bright, Semi-Bold';fill:#2027d1;stroke-width:0.660183"
         d="m -32.984164,-7.9228201 c -7.999645,0 -14.872004,2.986432 -20.618238,8.9579961 -5.689897,5.9152462 -8.534318,13.182107 -8.534318,21.801457 0,8.225009 2.760255,15.407682 8.281138,21.548269 5.577223,6.140591 12.646842,9.211181 21.209849,9.211181 2.816781,0 5.295609,-0.224962 7.436361,-0.675571 2.1971,-0.4507 3.886922,-0.929349 5.069961,-1.43637 1.18305,-0.563341 2.788701,-1.437831 4.816772,-2.620889 L -15.9982,41.512152 c -2.197081,1.40838 -3.71856,2.365729 -4.563599,2.87275 -0.788702,0.450681 -2.310191,0.985899 -4.563605,1.605601 -2.1971,0.563358 -4.703548,0.844769 -7.520329,0.844769 -6.027907,0 -10.985555,-2.365729 -14.872726,-7.09794 -3.83081,-4.788524 -5.745512,-10.422117 -5.745512,-16.900699 0,-6.591269 1.943613,-12.252479 5.830771,-16.9846629 3.94349,-4.7322081 8.844611,-7.099236 14.703507,-7.099236 2.309759,0 4.45062,0.28270598 6.422369,0.84606687 1.971751,0.56336194 3.435405,1.1261979 4.393094,1.68956093 0.95772,0.5070202 2.31086,1.3236421 4.057269,2.4503652 l 1.52033,-8.787498 c -5.408208,-1.9154 -10.957631,-2.8740492 -16.647533,-2.8740492 z m -90.755406,1.3524122 V 52.159713 h 22.47703 c 2.028057,0 3.549537,-0.0565 4.563567,-0.16923 6.47861,-0.732362 12.112201,-3.74641 16.900722,-9.041951 4.78853,-5.351888 7.183192,-11.915211 7.183192,-19.689516 0,-3.661825 -0.620673,-7.23869 -1.860058,-10.731518 -1.239382,-3.4928021 -3.013369,-6.676478 -5.323134,-9.5496019 -2.253419,-2.87310014 -5.183301,-5.1823131 -8.788783,-6.9287131 -3.60548,-1.7464019 -7.604488,-2.6195909 -11.998666,-2.6195909 z m 8.70354,6.76081588 h 12.08393 c 4.168847,0 7.718076,0.67591913 10.647538,2.02798202 2.98578,1.3520391 5.23844,3.2101959 6.759509,5.5762991 1.521063,2.3097409 2.620401,4.7320359 3.296433,7.2671359 0.676029,2.535105 1.013989,5.267751 1.013989,8.197191 0,2.816783 -0.33796,5.465244 -1.013989,7.944004 -0.676032,2.422419 -1.77537,4.760552 -3.296433,7.013974 -1.521069,2.253419 -3.773729,4.027419 -6.759509,5.323139 -2.929462,1.295728 -6.451071,1.944018 -10.563578,1.944018 h -1.26717 c -0.50702,-0.0562 -0.90154,-0.0852 -1.18319,-0.0852 h -9.80279 V 2.5555369 Z" />
    </clipPath>
    <linearGradient
       inkscape:collect="always"
       id="linearGradient15837">
      <stop
         style="stop-color:#0000ae;stop-opacity:1"
         offset="0.43963689"
         id="stop15833" />
      <stop
         style="stop-color:#a2ffe7;stop-opacity:1;"
         offset="1"
         id="stop15835" />
    </linearGradient>
    <clipPath
       clipPathUnits="userSpaceOnUse"
       id="clipPath21021">
      <path
         id="path21023"
         style="font-weight:600;font-size:33.8067px;font-family:'CMU Bright';-inkscape-font-specification:'CMU Bright, Semi-Bold';fill:#2027d1;stroke-width:0.660183"
         d="m -32.984164,-7.9228201 c -7.999645,0 -14.872004,2.986432 -20.618238,8.9579961 -5.689897,5.9152462 -8.534318,13.182107 -8.534318,21.801457 0,8.225009 2.760255,15.407682 8.281138,21.548269 5.577223,6.140591 12.646842,9.211181 21.209849,9.211181 2.816781,0 5.295609,-0.224962 7.436361,-0.675571 2.1971,-0.4507 3.886922,-0.929349 5.069961,-1.43637 1.18305,-0.563341 2.788701,-1.437831 4.816772,-2.620889 L -15.9982,41.512152 c -2.197081,1.40838 -3.71856,2.365729 -4.563599,2.87275 -0.788702,0.450681 -2.310191,0.985899 -4.563605,1.605601 -2.1971,0.563358 -4.703548,0.844769 -7.520329,0.844769 -6.027907,0 -10.985555,-2.365729 -14.872726,-7.09794 -3.83081,-4.788524 -5.745512,-10.422117 -5.745512,-16.900699 0,-6.591269 1.943613,-12.252479 5.830771,-16.9846629 3.94349,-4.7322081 8.844611,-7.099236 14.703507,-7.099236 2.309759,0 4.45062,0.28270598 6.422369,0.84606687 1.971751,0.56336194 3.435405,1.1261979 4.393094,1.68956093 0.95772,0.5070202 2.31086,1.3236421 4.057269,2.4503652 l 1.52033,-8.787498 c -5.408208,-1.9154 -10.957631,-2.8740492 -16.647533,-2.8740492 z m -90.755406,1.3524122 V 52.159713 h 22.47703 c 2.028057,0 3.549537,-0.0565 4.563567,-0.16923 6.47861,-0.732362 12.112201,-3.74641 16.900722,-9.041951 4.78853,-5.351888 7.183192,-11.915211 7.183192,-19.689516 0,-3.661825 -0.620673,-7.23869 -1.860058,-10.731518 -1.239382,-3.4928021 -3.013369,-6.676478 -5.323134,-9.5496019 -2.253419,-2.87310014 -5.183301,-5.1823131 -8.788783,-6.9287131 -3.60548,-1.7464019 -7.604488,-2.6195909 -11.998666,-2.6195909 z m 8.70354,6.76081588 h 12.08393 c 4.168847,0 7.718076,0.67591913 10.647538,2.02798202 2.98578,1.3520391 5.23844,3.2101959 6.759509,5.5762991 1.521063,2.3097409 2.620401,4.7320359 3.296433,7.2671359 0.676029,2.535105 1.013989,5.267751 1.013989,8.197191 0,2.816783 -0.33796,5.465244 -1.013989,7.944004 -0.676032,2.422419 -1.77537,4.760552 -3.296433,7.013974 -1.521069,2.253419 -3.773729,4.027419 -6.759509,5.323139 -2.929462,1.295728 -6.451071,1.944018 -10.563578,1.944018 h -1.26717 c -0.50702,-0.0562 -0.90154,-0.0852 -1.18319,-0.0852 h -9.80279 V 2.5555369 Z" />
    </clipPath>
    <inkscape:path-effect
       effect="bspline"
       id="path-effect3663-6-5"
       is_visible="true"
       lpeversion="1"
       weight="33.333333"
       steps="2"
       helper_size="0"
       apply_no_weight="true"
       apply_with_weight="true"
       only_selected="false" />
    <inkscape:path-effect
       effect="bspline"
       id="path-effect4069-7-6"
       is_visible="true"
       lpeversion="1"
       weight="33.333333"
       steps="2"
       helper_size="0"
       apply_no_weight="true"
       apply_with_weight="true"
       only_selected="false" />
    <clipPath
       clipPathUnits="userSpaceOnUse"
       id="clipPath5035-5-2">
      <path
         style="opacity:1;fill:none;fill-opacity:0.92549;stroke:#32e89a;stroke-width:0.0416687;stroke-miterlimit:4;stroke-dasharray:none;stroke-dashoffset:0;stroke-opacity:1"
         d="m 130.47178,95.380331 -0.0247,-0.259474 0.47756,-0.04328 c 1.12471,-0.101918 1.87047,-0.429358 3.72279,-1.634572 1.53665,-0.999823 2.06042,-1.284642 2.85092,-1.550302 1.23523,-0.415113 2.2997,-0.333886 3.50792,0.267684 0.82118,0.408869 1.49044,0.910971 2.86563,2.149925 1.21189,1.091829 1.20286,0.992314 0.10225,1.126135 -0.64591,0.07854 -1.24209,0.01961 -1.70681,-0.168727 -0.14235,-0.05768 -0.66473,-0.31006 -1.16085,-0.560835 -0.49611,-0.250775 -1.04721,-0.504714 -1.22464,-0.564311 -1.18357,-0.397526 -2.49345,-0.232 -5.42368,0.685379 -1.74632,0.546725 -2.94288,0.811848 -3.66404,0.811848 -0.29688,0 -0.29762,-5.29e-4 -0.32231,-0.259475 z"
         id="path5037-3-8" />
    </clipPath>
    <clipPath
       clipPathUnits="userSpaceOnUse"
       id="clipPath5031-5-5">
      <path
         style="opacity:1;fill:none;fill-opacity:0.92549;stroke:#32e89a;stroke-width:0.0416687;stroke-miterlimit:4;stroke-dasharray:none;stroke-dashoffset:0;stroke-opacity:1"
         d="m 130.47178,95.380331 -0.0247,-0.259474 0.47756,-0.04328 c 1.12471,-0.101918 1.87047,-0.429358 3.72279,-1.634572 1.53665,-0.999823 2.06042,-1.284642 2.85092,-1.550302 1.23523,-0.415113 2.2997,-0.333886 3.50792,0.267684 0.82118,0.408869 1.49044,0.910971 2.86563,2.149925 1.21189,1.091829 1.20286,0.992314 0.10225,1.126135 -0.64591,0.07854 -1.24209,0.01961 -1.70681,-0.168727 -0.14235,-0.05768 -0.66473,-0.31006 -1.16085,-0.560835 -0.49611,-0.250775 -1.04721,-0.504714 -1.22464,-0.564311 -1.18357,-0.397526 -2.49345,-0.232 -5.42368,0.685379 -1.74632,0.546725 -2.94288,0.811848 -3.66404,0.811848 -0.29688,0 -0.29762,-5.29e-4 -0.32231,-0.259475 z"
         id="path5033-6-9" />
    </clipPath>
    <clipPath
       clipPathUnits="userSpaceOnUse"
       id="clipPath3841">
      <path
         d="m -42.935884,54.299377 q -8.292203,0 -14.657935,-3.852934 -6.281965,-3.852955 -9.799886,-10.721242 -3.517895,-6.868284 -3.517895,-15.998071 0,-9.129813 3.517895,-15.9143461 3.517921,-6.86828617 9.799886,-10.7212177 6.365732,-3.8529578 14.657935,-3.8529578 9.297318,0 15.998089,4.6905617 6.784528,4.606757 9.716114,12.7314619 l -10.218674,3.769177 Q -29.283067,9.3204591 -33.303527,6.4726376 -37.24023,3.624815 -42.935884,3.624815 q -5.193099,0 -9.1298,2.4290348 -3.852942,2.4290311 -5.946931,6.9520352 -2.010233,4.439254 -2.010233,10.721245 0,6.281965 2.010233,10.804993 2.093989,4.523005 5.946931,6.952039 3.936701,2.429033 9.1298,2.429033 5.695654,0 9.632357,-2.847821 4.02046,-2.847848 5.863172,-7.957172 l 10.218674,3.685426 q -2.931586,8.124677 -9.716114,12.81521 -6.700771,4.690539 -15.998089,4.690539 z"
         id="path3843"
         style="font-weight:bold;font-size:31.9127px;font-family:'Hanken Grotesk';-inkscape-font-specification:'Hanken Grotesk, Bold';fill:#2027d1;stroke-width:0.46296" />
    </clipPath>
    <clipPath
       clipPathUnits="userSpaceOnUse"
       id="clipPath3837">
      <path
         d="m -42.935884,54.299377 q -8.292203,0 -14.657935,-3.852934 -6.281965,-3.852955 -9.799886,-10.721242 -3.517895,-6.868284 -3.517895,-15.998071 0,-9.129813 3.517895,-15.9143461 3.517921,-6.86828617 9.799886,-10.7212177 6.365732,-3.8529578 14.657935,-3.8529578 9.297318,0 15.998089,4.6905617 6.784528,4.606757 9.716114,12.7314619 l -10.218674,3.769177 Q -29.283067,9.3204591 -33.303527,6.4726376 -37.24023,3.624815 -42.935884,3.624815 q -5.193099,0 -9.1298,2.4290348 -3.852942,2.4290311 -5.946931,6.9520352 -2.010233,4.439254 -2.010233,10.721245 0,6.281965 2.010233,10.804993 2.093989,4.523005 5.946931,6.952039 3.936701,2.429033 9.1298,2.429033 5.695654,0 9.632357,-2.847821 4.02046,-2.847848 5.863172,-7.957172 l 10.218674,3.685426 q -2.931586,8.124677 -9.716114,12.81521 -6.700771,4.690539 -15.998089,4.690539 z"
         id="path3839"
         style="font-weight:bold;font-size:31.9127px;font-family:'Hanken Grotesk';-inkscape-font-specification:'Hanken Grotesk, Bold';fill:#2027d1;stroke-width:0.46296" />
    </clipPath>
    <clipPath
       clipPathUnits="userSpaceOnUse"
       id="clipPath3957">
      <path
         d="M -125.02026,52.959231 V -5.4212198 h 17.00321 q 14.574128,0 22.531303,7.7058893 7.957145,7.7058628 7.957145,21.9450025 0,13.9041 -7.873394,21.358706 -7.873394,7.370853 -22.698834,7.370853 z m 10.805,-9.967392 h 5.02557 q 6.617,0 11.223778,-1.675209 4.606744,-1.67518 7.035778,-5.863148 2.512785,-4.187994 2.512785,-11.642601 0,-7.203321 -2.429007,-11.391315 -2.345283,-4.2717217 -6.784539,-6.0306823 -4.355485,-1.8427123 -10.553685,-1.8427123 h -6.03068 z"
         id="path3959"
         style="font-weight:bold;font-size:31.9127px;font-family:'Hanken Grotesk';-inkscape-font-specification:'Hanken Grotesk, Bold';fill:#2027d1;stroke-width:0.46296" />
    </clipPath>
    <clipPath
       clipPathUnits="userSpaceOnUse"
       id="clipPath3953">
      <path
         d="M -125.02026,52.959231 V -5.4212198 h 17.00321 q 14.574128,0 22.531303,7.7058893 7.957145,7.7058628 7.957145,21.9450025 0,13.9041 -7.873394,21.358706 -7.873394,7.370853 -22.698834,7.370853 z m 10.805,-9.967392 h 5.02557 q 6.617,0 11.223778,-1.675209 4.606744,-1.67518 7.035778,-5.863148 2.512785,-4.187994 2.512785,-11.642601 0,-7.203321 -2.429007,-11.391315 -2.345283,-4.2717217 -6.784539,-6.0306823 -4.355485,-1.8427123 -10.553685,-1.8427123 h -6.03068 z"
         id="path3955"
         style="font-weight:bold;font-size:31.9127px;font-family:'Hanken Grotesk';-inkscape-font-specification:'Hanken Grotesk, Bold';fill:#2027d1;stroke-width:0.46296" />
    </clipPath>
    <linearGradient
       inkscape:collect="always"
       xlink:href="#linearGradient16825"
       id="linearGradient5944"
       gradientUnits="userSpaceOnUse"
       gradientTransform="matrix(0.89869465,0,0,-0.90319857,-35.063101,39.506484)"
       x1="-115.47361"
       y1="29.37281"
       x2="33.347797"
       y2="29.37281" />
    <linearGradient
       inkscape:collect="always"
       xlink:href="#linearGradient15837"
       id="linearGradient5946"
       gradientUnits="userSpaceOnUse"
       gradientTransform="matrix(0.89869465,0,0,-0.90319857,-35.063101,39.506484)"
       x1="-115.47361"
       y1="12.102397"
       x2="33.347797"
       y2="12.102397" />
    <linearGradient
       inkscape:collect="always"
       xlink:href="#linearGradient16825"
       id="linearGradient5948"
       gradientUnits="userSpaceOnUse"
       gradientTransform="matrix(0.89869465,0,0,-0.90319857,-35.063101,39.506484)"
       x1="-115.47361"
       y1="29.37281"
       x2="33.347797"
       y2="29.37281" />
    <linearGradient
       inkscape:collect="always"
       xlink:href="#linearGradient15837"
       id="linearGradient5950"
       gradientUnits="userSpaceOnUse"
       gradientTransform="matrix(0.89869465,0,0,-0.90319857,-35.063101,39.506484)"
       x1="-115.47361"
       y1="12.102397"
       x2="33.347797"
       y2="12.102397" />
  </defs>
  <g
     inkscape:label="Layer 1"
     inkscape:groupmode="layer"
     id="layer1"
     transform="translate(-49.289442,-159.79563)">
    <path
       d="m 132.03816,193.78824 v -16.38373 h 3.68883 v 16.38373 z M 131.872,174.71266 v -4.08762 h 4.02116 v 4.08762 z"
       style="font-weight:normal;font-size:31.9127px;font-family:'Hanken Grotesk';-inkscape-font-specification:'Hanken Grotesk, @wght=600';font-variation-settings:'wght' 600;fill:#a5a5a5;fill-opacity:1;stroke-width:0.183685"
       id="path1347" />
    <path
       style="fill:#c3cffc;fill-opacity:0.682353;stroke:none;stroke-width:0.113231px;stroke-linecap:butt;stroke-linejoin:miter;stroke-opacity:0.682353"
       d="m 108.08235,200.87792 c 0,0 -10.860251,-2.25455 -13.860921,-2.53673 -3.00067,-0.28205 -8.86662,-1.05578 -13.48895,-1.35094 -4.622341,-0.29512 -9.754371,-0.31673 -12.738938,-0.25561 -2.984573,0.0609 -9.384953,0.42428 -13.172543,1.20348 -3.7876,0.77915 -4.63503,1.4706 -5.20617,2.22631 -0.49984,0.6613 1.34562,1.36995 2.52767,1.63976 1.17018,0.26712 9.648729,0.87167 13.65465,0.79058 4.005921,-0.0809 16.561071,-0.44687 19.870831,-0.53832 3.30975,-0.0914 9.29621,-0.44469 12.59129,-0.64061 3.295081,-0.19597 3.405871,-0.22072 6.320921,-0.11915 2.91508,0.10203 3.54109,0.31461 3.54109,0.31461 z"
       id="path3703-7-2-5"
       sodipodi:nodetypes="csssssssssscc"
       inkscape:export-xdpi="96"
       inkscape:export-ydpi="96"
       inkscape:export-filename="/home/nggw/Downloads/draft3.png" />
    <path
       style="fill:none;fill-opacity:1;stroke:#16c177;stroke-width:0.130422;stroke-linecap:butt;stroke-linejoin:miter;stroke-miterlimit:4;stroke-dasharray:none;stroke-dashoffset:0;stroke-opacity:0.862745"
       d="m 107.86134,202.21461 c 0.70084,-0.0389 1.40191,-0.0778 2.41432,-0.64333 1.01241,-0.56552 2.33657,-1.65766 3.65193,-2.13322 1.31536,-0.47555 2.62157,-0.33453 4.07662,0.68035 1.45505,1.01488 3.05884,2.90332 4.8569,3.97562 1.79807,1.07229 3.79042,1.32868 5.2072,0.93257 1.41678,-0.3961 2.25823,-1.44466 3.37963,-2.44405 1.1214,-0.99939 2.52265,-1.94953 4.35891,-2.25088 1.83626,-0.30135 4.10684,0.046 5.71647,-0.18489 1.60963,-0.23091 2.55777,-1.03992 3.50606,-1.84906"
       id="path2932-8-9-9-6"
       sodipodi:nodetypes="cccccccccc"
       inkscape:export-xdpi="96"
       inkscape:export-ydpi="96"
       inkscape:export-filename="/home/nggw/Downloads/draft3.png"
       inkscape:original-d="m 107.86134,202.21461 c 0,0 1.40192,-0.0776 2.10253,-0.11668 1.32441,-1.09192 2.64857,-2.18406 3.97254,-3.27647 1.30652,0.14126 2.61273,0.28228 3.91879,0.42307 1.60408,1.88874 3.20787,3.77719 4.81142,5.66538 1.99253,0.25661 3.98488,0.51299 5.97702,0.76915 0.8417,-1.04836 1.68315,-2.09692 2.52437,-3.14571 1.40151,-0.94993 2.80276,-1.90006 4.20386,-2.85049 2.27121,0.34765 4.54179,0.69501 6.81269,1.04223 0.9486,-0.80897 1.89674,-1.61798 2.84482,-2.42737"
       inkscape:path-effect="#path-effect3663-6-5" />
    <path
       style="fill:#29299e;fill-opacity:1;stroke:#08208a;stroke-width:0.113231px;stroke-linecap:butt;stroke-linejoin:miter;stroke-opacity:1"
       d="m 107.86134,202.21461 c 0,0 -10.793081,-2.5569 -13.784701,-2.92273 -2.99162,-0.36582 -8.83368,-1.30299 -13.44597,-1.72708 -4.612301,-0.42408 -9.741725,-0.58897 -12.726836,-0.6112 -2.985108,-0.0226 -9.393135,0.16207 -13.201005,0.83518 -3.80788,0.67312 -4.67429,1.34064 -5.2663,2.08009 -0.51811,0.64714 1.30683,1.407 2.4809,1.70971 1.16226,0.29969 9.620622,1.14073 13.627247,1.17152 4.006625,0.0306 16.567094,0.0157 19.878114,0.0167 3.31102,8.6e-4 9.305,-0.18493 12.60427,-0.2888 3.299271,-0.1039 3.410691,-0.12556 6.321781,0.0577 2.91111,0.18318 3.53091,0.41332 3.53091,0.41332 z"
       id="path3703-1-3"
       sodipodi:nodetypes="csssssssssscc"
       inkscape:export-xdpi="96"
       inkscape:export-ydpi="96"
       inkscape:export-filename="/home/nggw/Downloads/draft3.png" />
    <path
       style="fill:none;fill-opacity:1;stroke:#16c177;stroke-width:0.130422;stroke-linecap:butt;stroke-linejoin:miter;stroke-miterlimit:4;stroke-dasharray:none;stroke-dashoffset:0;stroke-opacity:0.862745"
       d="m 107.87976,202.94905 c 0.70084,-0.0389 1.4019,-0.0778 2.76257,-0.48266 1.36067,-0.40486 3.38125,-1.17564 4.80058,-1.01259 1.41933,0.16306 2.23722,1.25962 3.63603,1.32391 1.39881,0.0643 3.37851,-0.90344 5.68029,-0.70273 2.30178,0.2007 4.92553,1.56964 7.1096,1.83755 2.18407,0.26792 3.92827,-0.56495 5.14917,-1.7324 1.2209,-1.16746 1.91832,-2.66933 2.81049,-3.73654 0.89216,-1.06722 1.97874,-1.69936 3.06536,-2.33153"
       id="path2932-8-9-7-2-6"
       sodipodi:nodetypes="ccccccccc"
       inkscape:export-xdpi="96"
       inkscape:export-ydpi="96"
       inkscape:export-filename="/home/nggw/Downloads/draft3.png"
       inkscape:original-d="m 107.87976,202.94905 c 0,0 1.40191,-0.0776 2.10252,-0.11668 2.02083,-0.77056 4.0414,-1.54135 6.06183,-2.31239 0.81817,1.09685 1.63606,2.19341 2.45378,3.28981 1.97999,-0.96752 3.9597,-1.93524 5.93913,-2.90317 2.62395,1.36915 5.24769,2.73809 7.87135,4.10686 1.74466,-0.83275 3.48886,-1.66562 5.23307,-2.49884 0.69774,-1.50184 1.39516,-3.00371 2.09244,-4.50601 1.08693,-0.63198 2.17351,-1.26413 3.25997,-1.89657"
       inkscape:path-effect="#path-effect4069-7-6" />
    <path
       style="fill:none;stroke:#16c177;stroke-width:0.264583px;stroke-linecap:butt;stroke-linejoin:miter;stroke-opacity:0.862745"
       d="m 132.79607,88.389517 -6.2434,10.416855"
       id="path4612-7-3"
       clip-path="url(#clipPath5035-5-2)"
       transform="matrix(0.86947786,0,0,0.86947786,-5.5595015,119.50929)"
       inkscape:export-xdpi="96"
       inkscape:export-ydpi="96"
       inkscape:export-filename="/home/nggw/Downloads/draft3.png" />
    <path
       style="fill:none;stroke:#16c177;stroke-width:0.264583px;stroke-linecap:butt;stroke-linejoin:miter;stroke-opacity:0.862745"
       d="m 134.39823,88.292695 -6.2434,10.416857"
       id="path4612-6-0-0"
       clip-path="url(#clipPath5031-5-5)"
       transform="matrix(0.86947786,0,0,0.86947786,-5.5595015,119.50929)"
       inkscape:export-xdpi="96"
       inkscape:export-ydpi="96"
       inkscape:export-filename="/home/nggw/Downloads/draft3.png" />
    <ellipse
       style="opacity:0.681818;fill:none;stroke:#16c177;stroke-width:0.130422;stroke-miterlimit:4;stroke-dasharray:none;stroke-dashoffset:0;stroke-opacity:0.862745"
       id="path1395-9-8"
       cx="132.41592"
       cy="202.9234"
       rx="0.24648146"
       ry="0.28756174"
       inkscape:export-filename="/home/nggw/Downloads/draft3.png"
       inkscape:export-xdpi="96"
       inkscape:export-ydpi="96" />
    <ellipse
       style="opacity:0.681818;fill:none;stroke:#16c177;stroke-width:0.130519;stroke-miterlimit:4;stroke-dasharray:none;stroke-dashoffset:0;stroke-opacity:0.862745"
       id="path1395-6-3-4"
       cx="-24.64432"
       cy="-240.84288"
       rx="0.23855308"
       ry="0.21377794"
       transform="matrix(-0.90519628,0.42499376,-0.473882,-0.88058836,0,0)"
       inkscape:export-filename="/home/nggw/Downloads/draft3.png"
       inkscape:export-xdpi="96"
       inkscape:export-ydpi="96" />
    <ellipse
       style="opacity:0.681818;fill:none;stroke:#16c177;stroke-width:0.130422;stroke-miterlimit:4;stroke-dasharray:none;stroke-dashoffset:0;stroke-opacity:0.862745"
       id="path1395-5-6-0"
       cx="135.11882"
       cy="201.87801"
       rx="0.31823194"
       ry="0.45909944"
       inkscape:export-filename="/home/nggw/Downloads/draft3.png"
       inkscape:export-xdpi="96"
       inkscape:export-ydpi="96" />
    <ellipse
       style="opacity:0.681818;fill:none;stroke:#16c177;stroke-width:0.130519;stroke-miterlimit:4;stroke-dasharray:none;stroke-dashoffset:0;stroke-opacity:0.862745"
       id="path1395-6-8-0-4"
       cx="-22.249098"
       cy="-240.5777"
       rx="0.23855308"
       ry="0.21377794"
       transform="matrix(-0.90519628,0.42499376,-0.473882,-0.88058836,0,0)"
       inkscape:export-filename="/home/nggw/Downloads/draft3.png"
       inkscape:export-xdpi="96"
       inkscape:export-ydpi="96" />
    <ellipse
       style="opacity:0.681818;fill:none;stroke:#16c177;stroke-width:0.115641;stroke-miterlimit:4;stroke-dasharray:none;stroke-dashoffset:0;stroke-opacity:0.862745"
       id="path1395-3-6-6"
       cx="127.34288"
       cy="203.65837"
       rx="0.24648146"
       ry="0.28756174"
       inkscape:export-filename="/home/nggw/Downloads/draft3.png"
       inkscape:export-xdpi="96"
       inkscape:export-ydpi="96" />
    <ellipse
       style="opacity:0.681818;fill:none;stroke:#16c177;stroke-width:0.115728;stroke-miterlimit:4;stroke-dasharray:none;stroke-dashoffset:0;stroke-opacity:0.862745"
       id="path1395-6-2-2-4"
       cx="-14.739798"
       cy="-239.13289"
       rx="0.23855308"
       ry="0.21377794"
       transform="matrix(-0.90519628,0.42499376,-0.473882,-0.88058836,0,0)"
       inkscape:export-filename="/home/nggw/Downloads/draft3.png"
       inkscape:export-xdpi="96"
       inkscape:export-ydpi="96" />
    <ellipse
       style="opacity:0.681818;fill:none;stroke:#16c177;stroke-width:0.130422;stroke-miterlimit:4;stroke-dasharray:none;stroke-dashoffset:0;stroke-opacity:0.862745"
       id="path1395-56-6-6"
       cx="124.56506"
       cy="203.16345"
       rx="0.24648146"
       ry="0.28756174"
       inkscape:export-filename="/home/nggw/Downloads/draft3.png"
       inkscape:export-xdpi="96"
       inkscape:export-ydpi="96" />
    <ellipse
       style="opacity:0.681818;fill:none;stroke:#16c177;stroke-width:0.130519;stroke-miterlimit:4;stroke-dasharray:none;stroke-dashoffset:0;stroke-opacity:0.862745"
       id="path1395-6-5-1-4"
       cx="-12.569715"
       cy="-237.08414"
       rx="0.23855308"
       ry="0.21377794"
       transform="matrix(-0.90519628,0.42499376,-0.473882,-0.88058836,0,0)"
       inkscape:export-filename="/home/nggw/Downloads/draft3.png"
       inkscape:export-xdpi="96"
       inkscape:export-ydpi="96" />
    <ellipse
       style="opacity:0.681818;fill:none;stroke:#16c177;stroke-width:0.130422;stroke-miterlimit:4;stroke-dasharray:none;stroke-dashoffset:0;stroke-opacity:0.862745"
       id="path1395-56-7-8-3"
       cx="116.54732"
       cy="200.61935"
       rx="0.24648146"
       ry="0.28756174"
       inkscape:export-filename="/home/nggw/Downloads/draft3.png"
       inkscape:export-xdpi="96"
       inkscape:export-ydpi="96" />
    <ellipse
       style="opacity:0.681818;fill:none;stroke:#16c177;stroke-width:0.130422;stroke-miterlimit:4;stroke-dasharray:none;stroke-dashoffset:0;stroke-opacity:0.862745"
       id="path1395-56-79-7-8"
       cx="118.46449"
       cy="201.83939"
       rx="0.24648146"
       ry="0.28756174"
       inkscape:export-filename="/home/nggw/Downloads/draft3.png"
       inkscape:export-xdpi="96"
       inkscape:export-ydpi="96" />
    <ellipse
       style="opacity:0.681818;fill:none;stroke:#16c177;stroke-width:0.130422;stroke-miterlimit:4;stroke-dasharray:none;stroke-dashoffset:0;stroke-opacity:0.862745"
       id="path1395-56-0-9-4"
       cx="114.39777"
       cy="199.98029"
       rx="0.24648146"
       ry="0.28756174"
       inkscape:export-filename="/home/nggw/Downloads/draft3.png"
       inkscape:export-xdpi="96"
       inkscape:export-ydpi="96" />
    <ellipse
       style="opacity:0.681818;fill:none;stroke:#16c177;stroke-width:0.131136;stroke-miterlimit:4;stroke-dasharray:none;stroke-dashoffset:0;stroke-opacity:0.862745"
       id="path1395-6-2-3-2-0"
       cx="-209.46481"
       cy="97.157112"
       rx="0.39788523"
       ry="0.41412839"
       transform="matrix(-0.85589477,-0.51715002,-0.3857878,0.92258754,0,0)"
       inkscape:export-filename="/home/nggw/Downloads/draft3.png"
       inkscape:export-xdpi="96"
       inkscape:export-ydpi="96" />
    <ellipse
       style="opacity:0.681818;fill:none;stroke:#16c177;stroke-width:0.130422;stroke-miterlimit:4;stroke-dasharray:none;stroke-dashoffset:0;stroke-opacity:0.862745"
       id="path1395-56-2-0-0"
       cx="142.62621"
       cy="198.964"
       rx="0.24648146"
       ry="0.28756174"
       inkscape:export-filename="/home/nggw/Downloads/draft3.png"
       inkscape:export-xdpi="96"
       inkscape:export-ydpi="96" />
    <ellipse
       style="opacity:0.681818;fill:none;stroke:#16c177;stroke-width:0.130519;stroke-miterlimit:4;stroke-dasharray:none;stroke-dashoffset:0;stroke-opacity:0.862745"
       id="path1395-6-8-9-2-9"
       cx="-29.687902"
       cy="-240.53375"
       rx="0.23855308"
       ry="0.21377794"
       transform="matrix(-0.90519628,0.42499376,-0.473882,-0.88058836,0,0)"
       inkscape:export-filename="/home/nggw/Downloads/draft3.png"
       inkscape:export-xdpi="96"
       inkscape:export-ydpi="96" />
    <ellipse
       style="opacity:0.681818;fill:none;stroke:#16c177;stroke-width:0.130422;stroke-miterlimit:4;stroke-dasharray:none;stroke-dashoffset:0;stroke-opacity:0.862745"
       id="path1395-5-1-3-3"
       cx="125.60567"
       cy="203.64503"
       rx="0.39880663"
       ry="0.45392302"
       inkscape:export-filename="/home/nggw/Downloads/draft3.png"
       inkscape:export-xdpi="96"
       inkscape:export-ydpi="96" />
    <path
       style="fill:none;stroke:#16c177;stroke-width:0.130422;stroke-linecap:butt;stroke-linejoin:miter;stroke-miterlimit:4;stroke-dasharray:none;stroke-dashoffset:0;stroke-opacity:0.862745"
       d="m 118.62818,202.73057 c 0,0 1.49355,0.0707 2.26016,0.26191 0.75877,0.24279 2.00395,1.12272 2.00395,1.12272"
       id="path2556-7-7"
       sodipodi:nodetypes="ccc"
       inkscape:export-filename="/home/nggw/Downloads/draft3.png"
       inkscape:export-xdpi="96"
       inkscape:export-ydpi="96" />
    <path
       style="fill:none;stroke:#16c177;stroke-width:0.130422;stroke-linecap:butt;stroke-linejoin:miter;stroke-miterlimit:4;stroke-dasharray:none;stroke-dashoffset:0;stroke-opacity:0.862745"
       d="m 118.86908,200.79043 c 0,0 1.10822,1.13311 2.10333,1.29911 1.0706,0.17859 2.99065,-0.0434 2.99065,-0.0434"
       id="path2558-5-5"
       sodipodi:nodetypes="csc"
       inkscape:export-filename="/home/nggw/Downloads/draft3.png"
       inkscape:export-xdpi="96"
       inkscape:export-ydpi="96" />
    <path
       style="fill:none;stroke:#16c177;stroke-width:0.130422;stroke-linecap:butt;stroke-linejoin:miter;stroke-miterlimit:4;stroke-dasharray:none;stroke-opacity:0.862745"
       d="m 128.68241,204.81282 c 0,0 1.1788,-0.54691 1.74397,-0.75862 0.5586,-0.20925 2.31568,-0.0778 2.31568,-0.0778"
       id="path2560-9-7"
       sodipodi:nodetypes="csc"
       inkscape:export-filename="/home/nggw/Downloads/draft3.png"
       inkscape:export-xdpi="96"
       inkscape:export-ydpi="96" />
    <path
       style="fill:none;stroke:#16c177;stroke-width:0.130422;stroke-linecap:butt;stroke-linejoin:miter;stroke-miterlimit:4;stroke-dasharray:none;stroke-opacity:0.862745"
       d="m 128.3518,202.98893 c 0,0 1.1658,0.33722 1.8987,0.18257 0.58583,-0.1236 1.48435,-0.82494 1.48435,-0.82494"
       id="path2562-2-2"
       sodipodi:nodetypes="csc"
       inkscape:export-filename="/home/nggw/Downloads/draft3.png"
       inkscape:export-xdpi="96"
       inkscape:export-ydpi="96" />
    <path
       style="fill:none;stroke:#16c177;stroke-width:0.130422;stroke-linecap:butt;stroke-linejoin:miter;stroke-miterlimit:4;stroke-dasharray:none;stroke-opacity:0.862745"
       d="m 137.5706,201.55815 c 0,0 0.79656,-0.78475 1.19104,-0.99991 0.39448,-0.21515 1.5349,-0.32183 1.5349,-0.32183"
       id="path2564-2-9"
       sodipodi:nodetypes="csc"
       inkscape:export-filename="/home/nggw/Downloads/draft3.png"
       inkscape:export-xdpi="96"
       inkscape:export-ydpi="96" />
    <path
       style="fill:none;stroke:#16c177;stroke-width:0.130422;stroke-linecap:butt;stroke-linejoin:miter;stroke-miterlimit:4;stroke-dasharray:none;stroke-opacity:0.862745"
       d="m 137.20336,200.22179 c 0,0 0.652,0.006 1.20602,-0.28736 0.60897,-0.32227 1.11708,-1.09018 1.11708,-1.09018"
       id="path2566-8-7"
       sodipodi:nodetypes="csc"
       inkscape:export-filename="/home/nggw/Downloads/draft3.png"
       inkscape:export-xdpi="96"
       inkscape:export-ydpi="96" />
    <ellipse
       style="opacity:0.681818;fill:none;stroke:#16c177;stroke-width:0.115728;stroke-miterlimit:4;stroke-dasharray:none;stroke-dashoffset:0;stroke-opacity:0.862745"
       id="path1395-6-2-6-9-5"
       cx="-16.382681"
       cy="-239.6595"
       rx="0.23855308"
       ry="0.21377794"
       transform="matrix(-0.90519628,0.42499376,-0.473882,-0.88058836,0,0)"
       inkscape:export-filename="/home/nggw/Downloads/draft3.png"
       inkscape:export-xdpi="96"
       inkscape:export-ydpi="96" />
    <ellipse
       style="opacity:0.681818;fill:none;stroke:#16c177;stroke-width:0.115728;stroke-miterlimit:4;stroke-dasharray:none;stroke-dashoffset:0;stroke-opacity:0.862745"
       id="path1395-6-2-7-7-6"
       cx="-21.212484"
       cy="-240.69164"
       rx="0.23855308"
       ry="0.21377794"
       transform="matrix(-0.90519628,0.42499376,-0.473882,-0.88058836,0,0)"
       inkscape:export-filename="/home/nggw/Downloads/draft3.png"
       inkscape:export-xdpi="96"
       inkscape:export-ydpi="96" />
    <ellipse
       style="opacity:0.681818;fill:none;stroke:#16c177;stroke-width:0.115728;stroke-miterlimit:4;stroke-dasharray:none;stroke-dashoffset:0;stroke-opacity:0.862745"
       id="path1395-6-2-5-3-5"
       cx="-25.322206"
       cy="-240.61853"
       rx="0.23855308"
       ry="0.21377794"
       transform="matrix(-0.90519628,0.42499376,-0.473882,-0.88058836,0,0)"
       inkscape:export-filename="/home/nggw/Downloads/draft3.png"
       inkscape:export-xdpi="96"
       inkscape:export-ydpi="96" />
    <ellipse
       style="opacity:0.681818;fill:none;stroke:#16c177;stroke-width:0.115728;stroke-miterlimit:4;stroke-dasharray:none;stroke-dashoffset:0;stroke-opacity:0.862745"
       id="path1395-6-2-35-6-3"
       cx="-7.9825573"
       cy="-232.57471"
       rx="0.23855308"
       ry="0.21377794"
       transform="matrix(-0.90519628,0.42499376,-0.473882,-0.88058836,0,0)"
       inkscape:export-filename="/home/nggw/Downloads/draft3.png"
       inkscape:export-xdpi="96"
       inkscape:export-ydpi="96" />
    <ellipse
       style="opacity:0.681818;fill:none;stroke:#16c177;stroke-width:0.115728;stroke-miterlimit:4;stroke-dasharray:none;stroke-dashoffset:0;stroke-opacity:0.862745"
       id="path1395-6-2-62-1-0"
       cx="-6.6611233"
       cy="-231.1432"
       rx="0.23855308"
       ry="0.21377794"
       transform="matrix(-0.90519628,0.42499376,-0.473882,-0.88058836,0,0)"
       inkscape:export-filename="/home/nggw/Downloads/draft3.png"
       inkscape:export-xdpi="96"
       inkscape:export-ydpi="96" />
    <path
       style="fill:none;stroke:#16c177;stroke-width:0.270163;stroke-linecap:butt;stroke-linejoin:miter;stroke-miterlimit:4;stroke-dasharray:1.62098, 0.540326;stroke-dashoffset:0;stroke-opacity:0.862745"
       d="M 50.080148,164.97155 H 143.93725"
       id="path925-9-3-3-4"
       inkscape:export-xdpi="96"
       inkscape:export-ydpi="96"
       inkscape:export-filename="/home/nggw/Downloads/draft3.png"
       sodipodi:nodetypes="cc" />
    <path
       sodipodi:type="star"
       style="opacity:0.745068;fill:#16c178;fill-opacity:1;stroke:#16c177;stroke-width:0.149794;stroke-opacity:0.862745"
       id="path936-2-6-1-8"
       sodipodi:sides="3"
       sodipodi:cx="130.19591"
       sodipodi:cy="83.703827"
       sodipodi:r1="3.2464571"
       sodipodi:r2="1.6232285"
       sodipodi:arg1="-0.52709563"
       sodipodi:arg2="0.52010192"
       inkscape:flatsided="false"
       inkscape:rounded="0"
       inkscape:randomized="0"
       inkscape:transform-center-x="0.0056662653"
       inkscape:transform-center-y="0.80669674"
       inkscape:export-xdpi="96"
       inkscape:export-ydpi="96"
       d="m 133.00173,82.070777 -1.39724,2.439743 -1.39723,2.439744 -1.41426,-2.429912 -1.41427,-2.429912 2.8115,-0.0098 z"
       inkscape:export-filename="/home/nggw/Downloads/draft3.png"
       transform="translate(-2.9015015,77.800206)" />
    <path
       style="fill:none;stroke:#16c177;stroke-width:0.192728px;stroke-linecap:butt;stroke-linejoin:miter;stroke-opacity:0.862745"
       d="m 124.83794,166.12445 h 4.78235"
       id="path938-6-1-9-5"
       inkscape:export-xdpi="96"
       inkscape:export-ydpi="96"
       inkscape:export-filename="/home/nggw/Downloads/draft3.png" />
    <path
       style="fill:none;stroke:#16c177;stroke-width:0.163287px;stroke-linecap:butt;stroke-linejoin:miter;stroke-opacity:0.862745"
       d="m 125.58623,167.53529 h 3.43287"
       id="path938-0-9-2-4-5"
       inkscape:export-xdpi="96"
       inkscape:export-ydpi="96"
       inkscape:export-filename="/home/nggw/Downloads/draft3.png" />
    <path
       style="fill:none;stroke:#16c177;stroke-width:0.132703px;stroke-linecap:butt;stroke-linejoin:miter;stroke-opacity:0.862745"
       d="m 126.14659,168.88889 h 2.26735"
       id="path938-0-9-2-3-7-5"
       inkscape:export-xdpi="96"
       inkscape:export-ydpi="96"
       inkscape:export-filename="/home/nggw/Downloads/draft3.png" />
    <path
       d="m 95.535408,193.78824 v -23.1632 h 15.386742 v 3.42297 H 99.39041 v 6.14805 h 10.00304 v 3.45621 H 99.39041 v 10.13597 z"
       style="font-weight:normal;font-size:31.9127px;font-family:'Hanken Grotesk';-inkscape-font-specification:'Hanken Grotesk, @wght=600';font-variation-settings:'wght' 600;fill:#a5a5a5;fill-opacity:1;stroke-width:0.183685"
       id="path1343" />
    <path
       d="m 120.3735,194.08733 q -2.32629,0 -4.18732,-1.09667 -1.86103,-1.09668 -2.92448,-3.02418 -1.03021,-1.9275 -1.03021,-4.38672 0,-2.45923 1.03021,-4.38672 1.06345,-1.9275 2.89124,-2.99095 1.86104,-1.09668 4.22056,-1.09668 2.39275,0 4.18733,1.09668 1.8278,1.06345 2.89124,2.99095 1.06345,1.92749 1.06345,4.38672 0,2.45922 -1.06345,4.38672 -1.03021,1.9275 -2.89124,3.02418 -1.82781,1.09667 -4.18733,1.09667 z m 0.0332,-3.2568 q 1.36254,0 2.35952,-0.63142 0.99698,-0.63142 1.5287,-1.8278 0.53174,-1.19638 0.53174,-2.79155 0,-1.6284 -0.53174,-2.79154 -0.53172,-1.19639 -1.5287,-1.82781 -0.99698,-0.63142 -2.35952,-0.63142 -1.42901,0 -2.42599,0.66465 -0.99698,0.63142 -1.5287,1.79458 -0.53173,1.16314 -0.53173,2.79154 0,1.59517 0.53173,2.79155 0.53172,1.19638 1.5287,1.8278 0.99698,0.63142 2.42599,0.63142 z"
       style="font-weight:normal;font-size:31.9127px;font-family:'Hanken Grotesk';-inkscape-font-specification:'Hanken Grotesk, @wght=600';font-variation-settings:'wght' 600;fill:#a5a5a5;fill-opacity:1;stroke-width:0.183685"
       id="path1345" />
    <path
       d="m 143.63633,194.08733 q -1.59517,0 -2.65862,-0.96374 -1.06344,-0.99698 -1.06344,-3.15711 v -19.34144 h 3.68883 v 18.61032 q 0,0.76435 0.33232,1.12991 0.36556,0.33233 0.93052,0.33233 0.29909,0 0.59819,-0.0664 0.33233,-0.0664 0.66465,-0.16616 v 3.12387 q -0.63142,0.26587 -1.29607,0.36556 -0.66466,0.13293 -1.19638,0.13293 z"
       style="font-weight:normal;font-size:31.9127px;font-family:'Hanken Grotesk';-inkscape-font-specification:'Hanken Grotesk, @wght=600';font-variation-settings:'wght' 600;fill:#a5a5a5;fill-opacity:1;stroke-width:0.183685"
       id="path1349" />
    <path
       id="rect10781-7"
       style="fill:url(#linearGradient5944);fill-opacity:1;stroke:none;stroke-width:0.158916;stroke-opacity:0.862745"
       d="m -5.0936114,15.859538 c -0.1949437,-0.204081 -0.3859229,-0.407203 -0.593056,-0.613764 -0.3210071,-0.32012 -0.6567118,-0.643101 -1.0077767,-0.967085 -0.3510648,-0.323987 -0.7171938,-0.649236 -1.0992671,-0.974555 -0.3820717,-0.325318 -0.7799759,-0.650438 -1.1940061,-0.974556 -0.4140301,-0.324117 -0.8445956,-0.64717 -1.2915337,-0.967553 -0.446937,-0.320384 -0.910586,-0.638503 -1.391382,-0.95262 -0.240398,-0.157056 -0.484733,-0.313124 -0.733774,-0.4681392 -0.249041,-0.1550162 -0.502441,-0.3089492 -0.760244,-0.4616071 -0.257802,-0.1526558 -0.520033,-0.3036898 -0.786716,-0.4536721 -0.266683,-0.1499812 -0.53797,-0.2987466 -0.813653,-0.445737 -0.275681,-0.1469904 -0.555788,-0.2922549 -0.840587,-0.4359353 -0.2848,-0.1436814 -0.574416,-0.2856113 -0.868454,-0.4256674 -0.294037,-0.140053 -0.592461,-0.2783536 -0.895853,-0.4144661 -0.303392,-0.1361085 -0.61178,-0.2700095 -0.924647,-0.4018643 -0.312866,-0.1318497 -0.630516,-0.2615155 -0.952975,-0.3887954 -0.32246,-0.1272778 -0.6496,-0.2524053 -0.981771,-0.3747929 -0.332172,-0.1223938 -0.669025,-0.2422109 -1.011027,-0.3593901 -0.342004,-0.1171813 -0.689263,-0.2318655 -1.041215,-0.3435211 -0.351953,-0.1116556 -0.708917,-0.2204398 -1.070938,-0.3262525 -0.36202,-0.1058168 -0.728916,-0.2083939 -1.101124,-0.3080485 -0.372207,-0.099649 -0.749726,-0.1962011 -1.13224,-0.2893794 -0.382513,-0.093182 -0.769952,-0.182922 -1.16289,-0.2693097 -0.392939,-0.086389 -0.791454,-0.169495 -1.194936,-0.2487719 -0.403482,-0.079289 -0.811907,-0.1549847 -1.226052,-0.2268366 -0.414144,-0.071853 -0.833634,-0.1398541 -1.25856,-0.2039648 -0.424925,-0.064121 -0.855243,-0.1241166 -1.291068,-0.1801627 -0.435826,-0.056052 -0.877199,-0.1082088 -1.324044,-0.1558915 -0.446843,-0.047677 -0.899498,-0.090775 -1.35748,-0.1297565 -0.457981,-0.038976 -0.921215,-0.073648 -1.390453,-0.1036227 -0.469238,-0.02998 -0.944207,-0.05543 -1.42482,-0.076076 -0.480613,-0.020646 -0.96708,-0.0366 -1.459187,-0.047606 -0.492107,-0.010966 -0.989833,-0.017147 -1.493554,-0.018198 -0.44251,-9.212e-4 -0.879157,0.00602 -1.310109,0.020534 -0.430954,0.014556 -0.856409,0.036753 -1.276208,0.066283 -0.4198,0.02952 -0.834184,0.06661 -1.243235,0.1106152 -0.409051,0.044005 -0.812947,0.09509 -1.211654,0.1530904 -0.398708,0.05799 -0.792237,0.1226784 -1.181003,0.1941651 -0.388767,0.071476 -0.772514,0.1498262 -1.151745,0.2343034 -0.379233,0.084481 -0.753778,0.1751308 -1.123881,0.2721098 -0.370102,0.096987 -0.736032,0.1999978 -1.097409,0.3089839 -0.361376,0.1089779 -0.718344,0.2239589 -1.071401,0.3444534 -0.353057,0.1204995 -0.702111,0.2465491 -1.047253,0.3780602 -0.345139,0.131508 -0.686401,0.2682315 -1.024031,0.4102645 -0.337629,0.142033 -0.671681,0.2894783 -1.002203,0.4415375 -0.330524,0.1520591 -0.657484,0.3088849 -0.981306,0.4704744 -0.323822,0.1615896 -0.644275,0.327854 -0.9618,0.4984782 -0.317525,0.1706262 -0.632055,0.345451 -0.943688,0.5246182 -0.311633,0.1791671 -0.62036,0.3626073 -0.926504,0.5498207 -0.306146,0.1872124 -0.609653,0.3783938 -0.910716,0.5731577 -0.301062,0.1947638 -0.599933,0.3932744 -0.896317,0.595095 -0.296385,0.2018196 -0.590275,0.406782 -0.882385,0.6151637 -0.29211,0.2083806 -0.582069,0.4203215 -0.870312,0.6347675 -0.576482,0.428895 -1.145603,0.869288 -1.70904,1.319477 -0.563437,0.450189 -1.121511,0.909828 -1.675139,1.377351 -0.553629,0.467523 -1.103004,0.942661 -1.65006,1.42356 -0.547058,0.480899 -1.091477,0.967784 -1.635201,1.458098 -1.087446,0.980625 -2.171751,1.975812 -3.265289,2.970337 -0.54677,0.497264 -1.095983,0.994573 -1.649131,1.489371 -0.553149,0.494798 -1.110053,0.987461 -1.672818,1.475834 -0.562767,0.488374 -1.131099,0.972176 -1.706719,1.450165 -0.575621,0.477989 -1.158661,0.950113 -1.750374,1.413757 -0.295857,0.231823 -0.593974,0.461415 -0.89446,0.688909 -0.300488,0.227495 -0.603336,0.452704 -0.908858,0.675376 -0.305522,0.222669 -0.613684,0.443085 -0.924646,0.660436 -0.310961,0.217351 -0.62456,0.431632 -0.941367,0.64317 -0.316805,0.211538 -0.636887,0.420203 -0.959942,0.625432 -0.323054,0.205229 -0.649274,0.406936 -0.978984,0.605363 -0.329708,0.198426 -0.66265,0.393699 -0.999416,0.584825 -0.336768,0.19113 -0.67748,0.378157 -1.02171,0.561491 -0.34423,0.183334 -0.691903,0.36264 -1.044001,0.537685 -0.352098,0.175046 -0.708244,0.345753 -1.068615,0.512014 -0.360371,0.166263 -0.72511,0.328427 -1.094159,0.485411 -0.369048,0.156983 -0.742498,0.308796 -1.120628,0.456005 -0.378131,0.14721 -0.760877,0.28966 -1.148495,0.426602 -0.387616,0.136935 -0.780244,0.268683 -1.177752,0.394863 -0.397508,0.126182 -0.800134,0.246804 -1.207939,0.361723 -0.407805,0.114916 -0.820549,0.22402 -1.239055,0.327185 -0.418505,0.103168 -0.842881,0.20033 -1.272492,0.291248 -0.429611,0.09092 -0.86481,0.175731 -1.30593,0.253905 -0.441122,0.07818 -0.887726,0.149765 -1.340762,0.214701 -0.453037,0.06493 -0.912559,0.122893 -1.377913,0.174095 -0.46536,0.0512 -0.93699,0.09558 -1.41507,0.132548 -0.47808,0.03697 -0.9624,0.0669 -1.45361,0.08915 -0.49121,0.02225 -0.98927,0.03684 -1.49402,0.04388 -0.50475,0.0069 -1.01621,0.0064 -1.53489,-0.0022 -0.39737,-0.0067 -0.79142,-0.01712 -1.18193,-0.03128 -0.39052,-0.0141 -0.77736,-0.03178 -1.16103,-0.05321 -0.38367,-0.02142 -0.76421,-0.0467 -1.14107,-0.07514 -0.37685,-0.02844 -0.7501,-0.06046 -1.12015,-0.09567 -0.37006,-0.03522 -0.73693,-0.07352 -1.1002,-0.115287 -0.36328,-0.04177 -0.72279,-0.08682 -1.0793,-0.134884 -0.35652,-0.04807 -0.71001,-0.09944 -1.05979,-0.153559 -0.34979,-0.05411 -0.69584,-0.110886 -1.0389,-0.170827 -0.34306,-0.05994 -0.68302,-0.123049 -1.01939,-0.188562 -0.33636,-0.06551 -0.66925,-0.133588 -0.99894,-0.204433 -0.65939,-0.141691 -1.30566,-0.293969 -1.93846,-0.45554 -0.63281,-0.161571 -1.2522,-0.332496 -1.85859,-0.512013 -0.60639,-0.179519 -1.19948,-0.367359 -1.77964,-0.56289 -0.58014,-0.195532 -1.14754,-0.398551 -1.70161,-0.608164 -0.55406,-0.209611 -1.09496,-0.426075 -1.62312,-0.647835 -0.52815,-0.221762 -1.04362,-0.449 -1.54603,-0.680975 -0.50241,-0.231975 -0.99165,-0.468722 -1.46848,-0.70898 -0.47682,-0.240257 -0.9409,-0.483841 -1.39231,-0.73045 -0.4514,-0.246607 -0.89045,-0.496228 -1.3166,-0.747251 -0.42617,-0.251024 -0.83939,-0.503546 -1.24046,-0.757053 -0.40107,-0.253508 -0.78998,-0.507663 -1.16615,-0.761721 -0.37614,-0.254059 -0.73996,-0.508112 -1.09136,-0.760788 -0.35141,-0.252676 -0.69025,-0.503959 -1.01707,-0.75332 -0.32681,-0.249361 -0.64129,-0.496604 -0.94368,-0.740718 -0.30239,-0.244113 -0.59264,-0.485115 -0.87077,-0.722047 -0.27815,-0.236933 -0.5443,-0.469958 -0.79834,-0.697778 -0.0926,-0.08301 -0.17532,-0.16154 -0.26471,-0.243172 V -8.422651 H -5.0936114 Z"
       clip-path="url(#clipPath3841)"
       transform="matrix(0.38204585,0,0,0.38204585,97.303361,173.04339)" />
    <path
       id="path14548-8"
       style="fill:url(#linearGradient5946);fill-opacity:1;stroke:none;stroke-width:0.158916;stroke-opacity:0.862745"
       d="M -138.83862,54.299376 V 22.05599 c 0.0894,0.08163 0.17214,0.160155 0.26471,0.243171 0.25404,0.22782 0.52019,0.460844 0.79834,0.697778 0.27813,0.236933 0.56838,0.477935 0.87077,0.722048 0.30239,0.244113 0.61687,0.491357 0.94368,0.740718 0.32682,0.249361 0.66566,0.500642 1.01707,0.75332 0.3514,0.252676 0.71522,0.506728 1.09136,0.760786 0.37617,0.254059 0.76508,0.508215 1.16615,0.761722 0.40107,0.253508 0.81429,0.506029 1.24046,0.757053 0.42615,0.251024 0.8652,0.500644 1.3166,0.747252 0.45141,0.246608 0.91549,0.490192 1.39231,0.730449 0.47683,0.240259 0.96607,0.477004 1.46848,0.70898 0.50241,0.231975 1.01788,0.459214 1.54603,0.680975 0.52816,0.221759 1.06906,0.438224 1.62312,0.647836 0.55407,0.209613 1.12147,0.412632 1.70161,0.608164 0.58016,0.195531 1.17325,0.38337 1.77964,0.56289 0.60639,0.179517 1.22578,0.350442 1.85859,0.512013 0.6328,0.161571 1.27907,0.313848 1.93846,0.45554 0.32969,0.07085 0.66258,0.138913 0.99894,0.204433 0.33637,0.06551 0.67633,0.128617 1.01939,0.188562 0.34306,0.05995 0.68911,0.116696 1.0389,0.170827 0.34978,0.05411 0.70327,0.105488 1.05979,0.153558 0.35651,0.04807 0.71602,0.09311 1.0793,0.134884 0.36327,0.04177 0.73014,0.08005 1.1002,0.115287 0.37005,0.03523 0.7433,0.06723 1.12015,0.09568 0.37686,0.02844 0.7574,0.05372 1.14107,0.07514 0.38367,0.02142 0.77051,0.03905 1.16103,0.05321 0.39051,0.0141 0.78456,0.02462 1.18193,0.03127 0.51868,0.0087 1.03014,0.0094 1.53489,0.0022 0.50475,-0.0069 1.00281,-0.02162 1.49402,-0.04388 0.49121,-0.02225 0.97553,-0.05217 1.45361,-0.08915 0.47808,-0.03697 0.94971,-0.08135 1.41507,-0.132547 0.465354,-0.0512 0.924876,-0.109164 1.377913,-0.174095 0.453036,-0.06495 0.89964,-0.136521 1.340762,-0.214702 0.44112,-0.07818 0.876319,-0.162988 1.30593,-0.253906 0.429611,-0.09092 0.853987,-0.18808 1.272492,-0.291246 0.418506,-0.103167 0.83125,-0.212266 1.239055,-0.327185 0.407805,-0.114917 0.810431,-0.235546 1.207939,-0.361724 0.397508,-0.126182 0.790136,-0.257921 1.177752,-0.394862 0.387618,-0.136935 0.770364,-0.279392 1.148495,-0.426602 0.37813,-0.14721 0.75158,-0.299023 1.120628,-0.456005 0.369049,-0.156984 0.733788,-0.31915 1.094159,-0.485412 0.360371,-0.16626 0.716517,-0.336968 1.068615,-0.512013 0.352098,-0.175045 0.699771,-0.354352 1.044001,-0.537686 0.34423,-0.183335 0.684942,-0.370361 1.02171,-0.56149 0.336766,-0.191127 0.669708,-0.3864 0.999416,-0.584826 0.32971,-0.198426 0.65593,-0.400133 0.978984,-0.605363 0.323055,-0.205228 0.643137,-0.413895 0.959942,-0.625431 0.316807,-0.211539 0.630406,-0.425819 0.941367,-0.643171 0.310962,-0.21735 0.619124,-0.437767 0.924646,-0.660437 0.305522,-0.22267 0.60837,-0.44788 0.908858,-0.675374 0.300486,-0.227494 0.598603,-0.457087 0.89446,-0.688909 0.591713,-0.463645 1.174753,-0.935769 1.750374,-1.413757 0.57562,-0.47799 1.143952,-0.961791 1.706719,-1.450166 0.562765,-0.488373 1.119669,-0.981035 1.672818,-1.475834 0.553148,-0.494798 1.102361,-0.992107 1.649131,-1.48937 1.093538,-0.994525 2.177843,-1.989712 3.265289,-2.970337 0.543724,-0.490314 1.088143,-0.9772 1.635201,-1.458099 0.547056,-0.480899 1.096431,-0.956036 1.65006,-1.423559 0.553628,-0.467523 1.111702,-0.927163 1.675139,-1.377352 0.563437,-0.450188 1.132558,-0.890582 1.70904,-1.319476 0.288243,-0.214447 0.578202,-0.4263868 0.870312,-0.6347685 0.29211,-0.2083806 0.586,-0.413344 0.882385,-0.6151636 0.296384,-0.2018196 0.595255,-0.4003312 0.896317,-0.5950941 0.301063,-0.1947648 0.60457,-0.3859452 0.910716,-0.5731576 0.306144,-0.1872134 0.614871,-0.3706546 0.926504,-0.5498218 0.311633,-0.1791661 0.626163,-0.3539909 0.943688,-0.5246171 0.317525,-0.1706252 0.637978,-0.3368887 0.9618,-0.4984782 0.323822,-0.1615895 0.650782,-0.3184154 0.981306,-0.4704745 0.330522,-0.1520601 0.664574,-0.2995045 1.002203,-0.4415374 0.33763,-0.142033 0.678892,-0.2787525 1.024031,-0.4102645 0.345142,-0.131509 0.694196,-0.2575638 1.047253,-0.3780603 0.353057,-0.1204995 0.710025,-0.2354703 1.071401,-0.3444544 0.361377,-0.1089912 0.727307,-0.2120038 1.097409,-0.3089829 0.370103,-0.096967 0.744648,-0.1876326 1.123881,-0.2721098 0.379231,-0.084481 0.762978,-0.1628217 1.151745,-0.2343044 0.388766,-0.071475 0.782295,-0.1361788 1.181003,-0.194164 0.398707,-0.05799 0.802603,-0.109078 1.211654,-0.1530904 0.409051,-0.044005 0.823435,-0.081095 1.243235,-0.1106162 0.419799,-0.029521 0.845254,-0.051727 1.276208,-0.066283 0.430952,-0.014536 0.867599,-0.021462 1.310109,-0.020534 0.503721,0.00102 1.001447,0.00724 1.493554,0.018198 0.492107,0.010966 0.978574,0.02696 1.459187,0.047606 0.480613,0.020646 0.955582,0.046096 1.42482,0.076076 0.469238,0.02998 0.932472,0.064631 1.390453,0.1036226 0.457982,0.038976 0.910637,0.082074 1.35748,0.1297566 0.446845,0.047677 0.888218,0.099833 1.324044,0.1558925 0.435825,0.056052 0.866143,0.1160551 1.291068,0.1801617 0.424926,0.064121 0.844416,0.1321068 1.25856,0.2039648 0.414145,0.071853 0.82257,0.1475586 1.226052,0.2268365 0.403482,0.079289 0.801997,0.1623862 1.194936,0.2487729 0.392938,0.086389 0.780377,0.1761315 1.16289,0.2693098 0.382514,0.093182 0.760033,0.1897258 1.13224,0.2893794 0.372208,0.099649 0.739104,0.2022368 1.101124,0.3080475 0.362021,0.1058158 0.718985,0.2145989 1.070938,0.3262525 0.351952,0.1116556 0.699211,0.2263418 1.041215,0.343521 0.342002,0.1171813 0.678855,0.2370035 1.011027,0.3593911 0.332171,0.1223938 0.659311,0.2475132 0.981771,0.374793 0.322459,0.1272778 0.640109,0.2569395 0.952975,0.3887953 0.312867,0.1318498 0.621255,0.2657498 0.924647,0.4018633 0.303392,0.1361085 0.601816,0.2744091 0.895853,0.4144662 0.294038,0.140054 0.583654,0.281987 0.868454,0.4256674 0.284799,0.1436813 0.564906,0.2889458 0.840587,0.4359363 0.275683,0.1469904 0.54697,0.2957558 0.813653,0.445737 0.266683,0.1499823 0.528914,0.3010162 0.786716,0.4536721 0.257803,0.1526569 0.511203,0.3065908 0.760244,0.4616061 0.249041,0.1550161 0.493376,0.3110841 0.733774,0.4681401 0.480796,0.314116 0.944445,0.632236 1.391382,0.95262 0.4469381,0.320382 0.8775036,0.643436 1.2915337,0.967553 0.4140302,0.324117 0.8119344,0.649237 1.1940061,0.974556 0.3820733,0.325318 0.7482023,0.650566 1.0992671,0.974553 0.3510649,0.323986 0.6867696,0.646966 1.0077767,0.967086 0.2071331,0.206561 0.3981123,0.409683 0.593056,0.613764 v 38.439947 z"
       clip-path="url(#clipPath3837)"
       transform="matrix(0.38204585,0,0,0.38204585,97.303361,173.04339)" />
    <path
       id="rect10781-1"
       style="fill:url(#linearGradient5948);fill-opacity:1;stroke:none;stroke-width:0.158916;stroke-opacity:0.862745"
       d="m -5.0936114,15.859538 c -0.1949437,-0.204081 -0.3859229,-0.407203 -0.593056,-0.613764 -0.3210071,-0.32012 -0.6567118,-0.643101 -1.0077767,-0.967085 -0.3510648,-0.323987 -0.7171938,-0.649236 -1.0992671,-0.974555 -0.3820717,-0.325318 -0.7799759,-0.650438 -1.1940061,-0.974556 -0.4140301,-0.324117 -0.8445956,-0.64717 -1.2915337,-0.967553 -0.446937,-0.320384 -0.910586,-0.638503 -1.391382,-0.95262 -0.240398,-0.157056 -0.484733,-0.313124 -0.733774,-0.4681392 -0.249041,-0.1550162 -0.502441,-0.3089492 -0.760244,-0.4616071 -0.257802,-0.1526558 -0.520033,-0.3036898 -0.786716,-0.4536721 -0.266683,-0.1499812 -0.53797,-0.2987466 -0.813653,-0.445737 -0.275681,-0.1469904 -0.555788,-0.2922549 -0.840587,-0.4359353 -0.2848,-0.1436814 -0.574416,-0.2856113 -0.868454,-0.4256674 -0.294037,-0.140053 -0.592461,-0.2783536 -0.895853,-0.4144661 -0.303392,-0.1361085 -0.61178,-0.2700095 -0.924647,-0.4018643 -0.312866,-0.1318497 -0.630516,-0.2615155 -0.952975,-0.3887954 -0.32246,-0.1272778 -0.6496,-0.2524053 -0.981771,-0.3747929 -0.332172,-0.1223938 -0.669025,-0.2422109 -1.011027,-0.3593901 -0.342004,-0.1171813 -0.689263,-0.2318655 -1.041215,-0.3435211 -0.351953,-0.1116556 -0.708917,-0.2204398 -1.070938,-0.3262525 -0.36202,-0.1058168 -0.728916,-0.2083939 -1.101124,-0.3080485 -0.372207,-0.099649 -0.749726,-0.1962011 -1.13224,-0.2893794 -0.382513,-0.093182 -0.769952,-0.182922 -1.16289,-0.2693097 -0.392939,-0.086389 -0.791454,-0.169495 -1.194936,-0.2487719 -0.403482,-0.079289 -0.811907,-0.1549847 -1.226052,-0.2268366 -0.414144,-0.071853 -0.833634,-0.1398541 -1.25856,-0.2039648 -0.424925,-0.064121 -0.855243,-0.1241166 -1.291068,-0.1801627 -0.435826,-0.056052 -0.877199,-0.1082088 -1.324044,-0.1558915 -0.446843,-0.047677 -0.899498,-0.090775 -1.35748,-0.1297565 -0.457981,-0.038976 -0.921215,-0.073648 -1.390453,-0.1036227 -0.469238,-0.02998 -0.944207,-0.05543 -1.42482,-0.076076 -0.480613,-0.020646 -0.96708,-0.0366 -1.459187,-0.047606 -0.492107,-0.010966 -0.989833,-0.017147 -1.493554,-0.018198 -0.44251,-9.212e-4 -0.879157,0.00602 -1.310109,0.020534 -0.430954,0.014556 -0.856409,0.036753 -1.276208,0.066283 -0.4198,0.02952 -0.834184,0.06661 -1.243235,0.1106152 -0.409051,0.044005 -0.812947,0.09509 -1.211654,0.1530904 -0.398708,0.05799 -0.792237,0.1226784 -1.181003,0.1941651 -0.388767,0.071476 -0.772514,0.1498262 -1.151745,0.2343034 -0.379233,0.084481 -0.753778,0.1751308 -1.123881,0.2721098 -0.370102,0.096987 -0.736032,0.1999978 -1.097409,0.3089839 -0.361376,0.1089779 -0.718344,0.2239589 -1.071401,0.3444534 -0.353057,0.1204995 -0.702111,0.2465491 -1.047253,0.3780602 -0.345139,0.131508 -0.686401,0.2682315 -1.024031,0.4102645 -0.337629,0.142033 -0.671681,0.2894783 -1.002203,0.4415375 -0.330524,0.1520591 -0.657484,0.3088849 -0.981306,0.4704744 -0.323822,0.1615896 -0.644275,0.327854 -0.9618,0.4984782 -0.317525,0.1706262 -0.632055,0.345451 -0.943688,0.5246182 -0.311633,0.1791671 -0.62036,0.3626073 -0.926504,0.5498207 -0.306146,0.1872124 -0.609653,0.3783938 -0.910716,0.5731577 -0.301062,0.1947638 -0.599933,0.3932744 -0.896317,0.595095 -0.296385,0.2018196 -0.590275,0.406782 -0.882385,0.6151637 -0.29211,0.2083806 -0.582069,0.4203215 -0.870312,0.6347675 -0.576482,0.428895 -1.145603,0.869288 -1.70904,1.319477 -0.563437,0.450189 -1.121511,0.909828 -1.675139,1.377351 -0.553629,0.467523 -1.103004,0.942661 -1.65006,1.42356 -0.547058,0.480899 -1.091477,0.967784 -1.635201,1.458098 -1.087446,0.980625 -2.171751,1.975812 -3.265289,2.970337 -0.54677,0.497264 -1.095983,0.994573 -1.649131,1.489371 -0.553149,0.494798 -1.110053,0.987461 -1.672818,1.475834 -0.562767,0.488374 -1.131099,0.972176 -1.706719,1.450165 -0.575621,0.477989 -1.158661,0.950113 -1.750374,1.413757 -0.295857,0.231823 -0.593974,0.461415 -0.89446,0.688909 -0.300488,0.227495 -0.603336,0.452704 -0.908858,0.675376 -0.305522,0.222669 -0.613684,0.443085 -0.924646,0.660436 -0.310961,0.217351 -0.62456,0.431632 -0.941367,0.64317 -0.316805,0.211538 -0.636887,0.420203 -0.959942,0.625432 -0.323054,0.205229 -0.649274,0.406936 -0.978984,0.605363 -0.329708,0.198426 -0.66265,0.393699 -0.999416,0.584825 -0.336768,0.19113 -0.67748,0.378157 -1.02171,0.561491 -0.34423,0.183334 -0.691903,0.36264 -1.044001,0.537685 -0.352098,0.175046 -0.708244,0.345753 -1.068615,0.512014 -0.360371,0.166263 -0.72511,0.328427 -1.094159,0.485411 -0.369048,0.156983 -0.742498,0.308796 -1.120628,0.456005 -0.378131,0.14721 -0.760877,0.28966 -1.148495,0.426602 -0.387616,0.136935 -0.780244,0.268683 -1.177752,0.394863 -0.397508,0.126182 -0.800134,0.246804 -1.207939,0.361723 -0.407805,0.114916 -0.820549,0.22402 -1.239055,0.327185 -0.418505,0.103168 -0.842881,0.20033 -1.272492,0.291248 -0.429611,0.09092 -0.86481,0.175731 -1.30593,0.253905 -0.441122,0.07818 -0.887726,0.149765 -1.340762,0.214701 -0.453037,0.06493 -0.912559,0.122893 -1.377913,0.174095 -0.46536,0.0512 -0.93699,0.09558 -1.41507,0.132548 -0.47808,0.03697 -0.9624,0.0669 -1.45361,0.08915 -0.49121,0.02225 -0.98927,0.03684 -1.49402,0.04388 -0.50475,0.0069 -1.01621,0.0064 -1.53489,-0.0022 -0.39737,-0.0067 -0.79142,-0.01712 -1.18193,-0.03128 -0.39052,-0.0141 -0.77736,-0.03178 -1.16103,-0.05321 -0.38367,-0.02142 -0.76421,-0.0467 -1.14107,-0.07514 -0.37685,-0.02844 -0.7501,-0.06046 -1.12015,-0.09567 -0.37006,-0.03522 -0.73693,-0.07352 -1.1002,-0.115287 -0.36328,-0.04177 -0.72279,-0.08682 -1.0793,-0.134884 -0.35652,-0.04807 -0.71001,-0.09944 -1.05979,-0.153559 -0.34979,-0.05411 -0.69584,-0.110886 -1.0389,-0.170827 -0.34306,-0.05994 -0.68302,-0.123049 -1.01939,-0.188562 -0.33636,-0.06551 -0.66925,-0.133588 -0.99894,-0.204433 -0.65939,-0.141691 -1.30566,-0.293969 -1.93846,-0.45554 -0.63281,-0.161571 -1.2522,-0.332496 -1.85859,-0.512013 -0.60639,-0.179519 -1.19948,-0.367359 -1.77964,-0.56289 -0.58014,-0.195532 -1.14754,-0.398551 -1.70161,-0.608164 -0.55406,-0.209611 -1.09496,-0.426075 -1.62312,-0.647835 -0.52815,-0.221762 -1.04362,-0.449 -1.54603,-0.680975 -0.50241,-0.231975 -0.99165,-0.468722 -1.46848,-0.70898 -0.47682,-0.240257 -0.9409,-0.483841 -1.39231,-0.73045 -0.4514,-0.246607 -0.89045,-0.496228 -1.3166,-0.747251 -0.42617,-0.251024 -0.83939,-0.503546 -1.24046,-0.757053 -0.40107,-0.253508 -0.78998,-0.507663 -1.16615,-0.761721 -0.37614,-0.254059 -0.73996,-0.508112 -1.09136,-0.760788 -0.35141,-0.252676 -0.69025,-0.503959 -1.01707,-0.75332 -0.32681,-0.249361 -0.64129,-0.496604 -0.94368,-0.740718 -0.30239,-0.244113 -0.59264,-0.485115 -0.87077,-0.722047 -0.27815,-0.236933 -0.5443,-0.469958 -0.79834,-0.697778 -0.0926,-0.08301 -0.17532,-0.16154 -0.26471,-0.243172 V -8.422651 H -5.0936114 Z"
       clip-path="url(#clipPath3957)"
       transform="matrix(0.38204585,0,0,0.38204585,97.052913,173.29939)" />
    <path
       id="path14548-55"
       style="fill:url(#linearGradient5950);fill-opacity:1;stroke:none;stroke-width:0.158916;stroke-opacity:0.862745"
       d="M -138.83862,54.299376 V 22.05599 c 0.0894,0.08163 0.17214,0.160155 0.26471,0.243171 0.25404,0.22782 0.52019,0.460844 0.79834,0.697778 0.27813,0.236933 0.56838,0.477935 0.87077,0.722048 0.30239,0.244113 0.61687,0.491357 0.94368,0.740718 0.32682,0.249361 0.66566,0.500642 1.01707,0.75332 0.3514,0.252676 0.71522,0.506728 1.09136,0.760786 0.37617,0.254059 0.76508,0.508215 1.16615,0.761722 0.40107,0.253508 0.81429,0.506029 1.24046,0.757053 0.42615,0.251024 0.8652,0.500644 1.3166,0.747252 0.45141,0.246608 0.91549,0.490192 1.39231,0.730449 0.47683,0.240259 0.96607,0.477004 1.46848,0.70898 0.50241,0.231975 1.01788,0.459214 1.54603,0.680975 0.52816,0.221759 1.06906,0.438224 1.62312,0.647836 0.55407,0.209613 1.12147,0.412632 1.70161,0.608164 0.58016,0.195531 1.17325,0.38337 1.77964,0.56289 0.60639,0.179517 1.22578,0.350442 1.85859,0.512013 0.6328,0.161571 1.27907,0.313848 1.93846,0.45554 0.32969,0.07085 0.66258,0.138913 0.99894,0.204433 0.33637,0.06551 0.67633,0.128617 1.01939,0.188562 0.34306,0.05995 0.68911,0.116696 1.0389,0.170827 0.34978,0.05411 0.70327,0.105488 1.05979,0.153558 0.35651,0.04807 0.71602,0.09311 1.0793,0.134884 0.36327,0.04177 0.73014,0.08005 1.1002,0.115287 0.37005,0.03523 0.7433,0.06723 1.12015,0.09568 0.37686,0.02844 0.7574,0.05372 1.14107,0.07514 0.38367,0.02142 0.77051,0.03905 1.16103,0.05321 0.39051,0.0141 0.78456,0.02462 1.18193,0.03127 0.51868,0.0087 1.03014,0.0094 1.53489,0.0022 0.50475,-0.0069 1.00281,-0.02162 1.49402,-0.04388 0.49121,-0.02225 0.97553,-0.05217 1.45361,-0.08915 0.47808,-0.03697 0.94971,-0.08135 1.41507,-0.132547 0.465354,-0.0512 0.924876,-0.109164 1.377913,-0.174095 0.453036,-0.06495 0.89964,-0.136521 1.340762,-0.214702 0.44112,-0.07818 0.876319,-0.162988 1.30593,-0.253906 0.429611,-0.09092 0.853987,-0.18808 1.272492,-0.291246 0.418506,-0.103167 0.83125,-0.212266 1.239055,-0.327185 0.407805,-0.114917 0.810431,-0.235546 1.207939,-0.361724 0.397508,-0.126182 0.790136,-0.257921 1.177752,-0.394862 0.387618,-0.136935 0.770364,-0.279392 1.148495,-0.426602 0.37813,-0.14721 0.75158,-0.299023 1.120628,-0.456005 0.369049,-0.156984 0.733788,-0.31915 1.094159,-0.485412 0.360371,-0.16626 0.716517,-0.336968 1.068615,-0.512013 0.352098,-0.175045 0.699771,-0.354352 1.044001,-0.537686 0.34423,-0.183335 0.684942,-0.370361 1.02171,-0.56149 0.336766,-0.191127 0.669708,-0.3864 0.999416,-0.584826 0.32971,-0.198426 0.65593,-0.400133 0.978984,-0.605363 0.323055,-0.205228 0.643137,-0.413895 0.959942,-0.625431 0.316807,-0.211539 0.630406,-0.425819 0.941367,-0.643171 0.310962,-0.21735 0.619124,-0.437767 0.924646,-0.660437 0.305522,-0.22267 0.60837,-0.44788 0.908858,-0.675374 0.300486,-0.227494 0.598603,-0.457087 0.89446,-0.688909 0.591713,-0.463645 1.174753,-0.935769 1.750374,-1.413757 0.57562,-0.47799 1.143952,-0.961791 1.706719,-1.450166 0.562765,-0.488373 1.119669,-0.981035 1.672818,-1.475834 0.553148,-0.494798 1.102361,-0.992107 1.649131,-1.48937 1.093538,-0.994525 2.177843,-1.989712 3.265289,-2.970337 0.543724,-0.490314 1.088143,-0.9772 1.635201,-1.458099 0.547056,-0.480899 1.096431,-0.956036 1.65006,-1.423559 0.553628,-0.467523 1.111702,-0.927163 1.675139,-1.377352 0.563437,-0.450188 1.132558,-0.890582 1.70904,-1.319476 0.288243,-0.214447 0.578202,-0.4263868 0.870312,-0.6347685 0.29211,-0.2083806 0.586,-0.413344 0.882385,-0.6151636 0.296384,-0.2018196 0.595255,-0.4003312 0.896317,-0.5950941 0.301063,-0.1947648 0.60457,-0.3859452 0.910716,-0.5731576 0.306144,-0.1872134 0.614871,-0.3706546 0.926504,-0.5498218 0.311633,-0.1791661 0.626163,-0.3539909 0.943688,-0.5246171 0.317525,-0.1706252 0.637978,-0.3368887 0.9618,-0.4984782 0.323822,-0.1615895 0.650782,-0.3184154 0.981306,-0.4704745 0.330522,-0.1520601 0.664574,-0.2995045 1.002203,-0.4415374 0.33763,-0.142033 0.678892,-0.2787525 1.024031,-0.4102645 0.345142,-0.131509 0.694196,-0.2575638 1.047253,-0.3780603 0.353057,-0.1204995 0.710025,-0.2354703 1.071401,-0.3444544 0.361377,-0.1089912 0.727307,-0.2120038 1.097409,-0.3089829 0.370103,-0.096967 0.744648,-0.1876326 1.123881,-0.2721098 0.379231,-0.084481 0.762978,-0.1628217 1.151745,-0.2343044 0.388766,-0.071475 0.782295,-0.1361788 1.181003,-0.194164 0.398707,-0.05799 0.802603,-0.109078 1.211654,-0.1530904 0.409051,-0.044005 0.823435,-0.081095 1.243235,-0.1106162 0.419799,-0.029521 0.845254,-0.051727 1.276208,-0.066283 0.430952,-0.014536 0.867599,-0.021462 1.310109,-0.020534 0.503721,0.00102 1.001447,0.00724 1.493554,0.018198 0.492107,0.010966 0.978574,0.02696 1.459187,0.047606 0.480613,0.020646 0.955582,0.046096 1.42482,0.076076 0.469238,0.02998 0.932472,0.064631 1.390453,0.1036226 0.457982,0.038976 0.910637,0.082074 1.35748,0.1297566 0.446845,0.047677 0.888218,0.099833 1.324044,0.1558925 0.435825,0.056052 0.866143,0.1160551 1.291068,0.1801617 0.424926,0.064121 0.844416,0.1321068 1.25856,0.2039648 0.414145,0.071853 0.82257,0.1475586 1.226052,0.2268365 0.403482,0.079289 0.801997,0.1623862 1.194936,0.2487729 0.392938,0.086389 0.780377,0.1761315 1.16289,0.2693098 0.382514,0.093182 0.760033,0.1897258 1.13224,0.2893794 0.372208,0.099649 0.739104,0.2022368 1.101124,0.3080475 0.362021,0.1058158 0.718985,0.2145989 1.070938,0.3262525 0.351952,0.1116556 0.699211,0.2263418 1.041215,0.343521 0.342002,0.1171813 0.678855,0.2370035 1.011027,0.3593911 0.332171,0.1223938 0.659311,0.2475132 0.981771,0.374793 0.322459,0.1272778 0.640109,0.2569395 0.952975,0.3887953 0.312867,0.1318498 0.621255,0.2657498 0.924647,0.4018633 0.303392,0.1361085 0.601816,0.2744091 0.895853,0.4144662 0.294038,0.140054 0.583654,0.281987 0.868454,0.4256674 0.284799,0.1436813 0.564906,0.2889458 0.840587,0.4359363 0.275683,0.1469904 0.54697,0.2957558 0.813653,0.445737 0.266683,0.1499823 0.528914,0.3010162 0.786716,0.4536721 0.257803,0.1526569 0.511203,0.3065908 0.760244,0.4616061 0.249041,0.1550161 0.493376,0.3110841 0.733774,0.4681401 0.480796,0.314116 0.944445,0.632236 1.391382,0.95262 0.4469381,0.320382 0.8775036,0.643436 1.2915337,0.967553 0.4140302,0.324117 0.8119344,0.649237 1.1940061,0.974556 0.3820733,0.325318 0.7482023,0.650566 1.0992671,0.974553 0.3510649,0.323986 0.6867696,0.646966 1.0077767,0.967086 0.2071331,0.206561 0.3981123,0.409683 0.593056,0.613764 v 38.439947 z"
       clip-path="url(#clipPath3953)"
       transform="matrix(0.38204585,0,0,0.38204585,97.052913,173.29939)" />
    <g
       id="g3069"
       transform="matrix(1.0413632,0,0,1.0413632,9.1443375,45.921129)">
      <rect
         style="fill:#ffffff;fill-opacity:1;stroke:none;stroke-width:0.306874;stroke-opacity:0.862745"
         id="rect10492-4"
         width="7.8354712"
         height="8.5339708"
         x="-5.6961689"
         y="96.50071"
         transform="translate(122.96359,20.547594)" />
      <g
         id="surface91-2"
         transform="matrix(0.02424318,0,0,0.02424318,117.24564,118.30932)">
        <path
           style="fill:#ca3a33;fill-opacity:1;fill-rule:nonzero;stroke:none"
           d="m 150.89844,225 c 0,41.42187 -33.57813,75 -75.000002,75 -41.421876,0 -75,-33.57813 -75,-75 0,-41.42188 33.578124,-75 75,-75 41.421872,0 75.000002,33.57812 75.000002,75"
           id="path7215-1" />
        <path
           style="fill:#389723;fill-opacity:1;fill-rule:nonzero;stroke:none"
           d="m 237.5,75 c 0,41.42188 -33.57813,75 -75,75 -41.42187,0 -75,-33.57812 -75,-75 0,-41.421875 33.57813,-75 75,-75 41.42187,0 75,33.578125 75,75"
           id="path7217-9" />
        <path
           style="fill:#9457b0;fill-opacity:1;fill-rule:nonzero;stroke:none"
           d="m 324.10156,225 c 0,41.42187 -33.57812,75 -75,75 -41.42187,0 -75,-33.57813 -75,-75 0,-41.42188 33.57813,-75 75,-75 41.42188,0 75,33.57812 75,75"
           id="path7219-2" />
      </g>
    </g>
  </g>
</svg>
